<mxfile host="Electron" agent="Mozilla/5.0 (Windows NT 10.0; Win64; x64) AppleWebKit/537.36 (KHTML, like Gecko) draw.io/27.0.9 Chrome/134.0.6998.205 Electron/35.4.0 Safari/537.36" version="27.0.9" pages="9">
  <diagram name="Test1" id="GJnv010BhNXLc_KUHKQ2">
    <mxGraphModel dx="1426" dy="875" grid="1" gridSize="10" guides="1" tooltips="1" connect="1" arrows="1" fold="1" page="1" pageScale="1" pageWidth="827" pageHeight="1169" math="0" shadow="0">
      <root>
        <mxCell id="0" />
        <mxCell id="1" parent="0" />
      </root>
    </mxGraphModel>
  </diagram>
  <diagram id="YEBX8y_b5ph-J7QV2ldW" name="Test2">
    <mxGraphModel dx="2037" dy="1250" grid="1" gridSize="10" guides="1" tooltips="1" connect="1" arrows="1" fold="1" page="1" pageScale="1" pageWidth="827" pageHeight="1169" math="0" shadow="0">
      <root>
        <mxCell id="0" />
        <mxCell id="1" parent="0" />
        <object label="Start" type="start" id="CU-XXjmXGAscoSzxA1_N-1">
          <mxCell style="strokeWidth=2;html=1;shape=mxgraph.flowchart.start_2;whiteSpace=wrap;" vertex="1" parent="1">
            <mxGeometry x="229" y="560" width="50" height="50" as="geometry" />
          </mxCell>
        </object>
        <object label="End" type="end" id="CU-XXjmXGAscoSzxA1_N-2">
          <mxCell style="strokeWidth=5;html=1;shape=mxgraph.flowchart.start_2;whiteSpace=wrap;spacing=2;" vertex="1" parent="1">
            <mxGeometry x="549" y="560" width="50" height="50" as="geometry" />
          </mxCell>
        </object>
        <object label="" condition="" default="" type="connection" id="CU-XXjmXGAscoSzxA1_N-3">
          <mxCell style="edgeStyle=orthogonalEdgeStyle;rounded=0;orthogonalLoop=1;jettySize=auto;html=1;exitX=1;exitY=0.5;exitDx=0;exitDy=0;exitPerimeter=0;entryX=0;entryY=0.5;entryDx=0;entryDy=0;entryPerimeter=0;" edge="1" parent="1" source="CU-XXjmXGAscoSzxA1_N-1" target="CU-XXjmXGAscoSzxA1_N-2">
            <mxGeometry relative="1" as="geometry">
              <mxPoint x="399" y="600" as="sourcePoint" />
              <mxPoint x="489" y="600" as="targetPoint" />
            </mxGeometry>
          </mxCell>
        </object>
      </root>
    </mxGraphModel>
  </diagram>
  <diagram id="LIwGdTZ14lZ0SfxVoV5g" name="Test3">
    <mxGraphModel dx="1426" dy="875" grid="1" gridSize="10" guides="1" tooltips="1" connect="1" arrows="1" fold="1" page="1" pageScale="1" pageWidth="827" pageHeight="1169" math="0" shadow="0">
      <root>
        <mxCell id="0" />
        <mxCell id="1" parent="0" />
        <object label="Start" type="start" id="Rq6XVdq67--SWbBnqQU--1">
          <mxCell style="strokeWidth=2;html=1;shape=mxgraph.flowchart.start_2;whiteSpace=wrap;" parent="1" vertex="1">
            <mxGeometry x="149" y="560" width="50" height="50" as="geometry" />
          </mxCell>
        </object>
        <object label="Increment counter" type="process" executable="increment-counter" id="wAV0DwxgieDANKQYoSu3-1">
          <mxCell style="rounded=1;whiteSpace=wrap;html=1;absoluteArcSize=1;arcSize=14;strokeWidth=2;" parent="1" vertex="1">
            <mxGeometry x="360" y="550" width="126" height="70" as="geometry" />
          </mxCell>
        </object>
        <object label="" condition="" default="" type="connection" id="wAV0DwxgieDANKQYoSu3-2">
          <mxCell style="edgeStyle=orthogonalEdgeStyle;rounded=0;orthogonalLoop=1;jettySize=auto;html=1;exitX=1;exitY=0.5;exitDx=0;exitDy=0;exitPerimeter=0;entryX=0;entryY=0.5;entryDx=0;entryDy=0;" parent="1" source="Rq6XVdq67--SWbBnqQU--1" target="wAV0DwxgieDANKQYoSu3-1" edge="1">
            <mxGeometry relative="1" as="geometry">
              <mxPoint x="379" y="580" as="sourcePoint" />
              <mxPoint x="469" y="580" as="targetPoint" />
            </mxGeometry>
          </mxCell>
        </object>
        <object label="End" type="end" id="wAV0DwxgieDANKQYoSu3-3">
          <mxCell style="strokeWidth=5;html=1;shape=mxgraph.flowchart.start_2;whiteSpace=wrap;spacing=2;" parent="1" vertex="1">
            <mxGeometry x="629" y="560" width="50" height="50" as="geometry" />
          </mxCell>
        </object>
        <object label="" condition="" default="" type="connection" id="wAV0DwxgieDANKQYoSu3-4">
          <mxCell style="edgeStyle=orthogonalEdgeStyle;rounded=0;orthogonalLoop=1;jettySize=auto;html=1;exitX=1;exitY=0.5;exitDx=0;exitDy=0;entryX=0;entryY=0.5;entryDx=0;entryDy=0;entryPerimeter=0;" parent="1" source="wAV0DwxgieDANKQYoSu3-1" target="wAV0DwxgieDANKQYoSu3-3" edge="1">
            <mxGeometry relative="1" as="geometry">
              <mxPoint x="439" y="700" as="sourcePoint" />
              <mxPoint x="589" y="670" as="targetPoint" />
            </mxGeometry>
          </mxCell>
        </object>
      </root>
    </mxGraphModel>
  </diagram>
  <diagram id="Ckfqt82UG5wY7lvK2z9f" name="Test4">
    <mxGraphModel dx="1426" dy="743" grid="1" gridSize="10" guides="1" tooltips="1" connect="1" arrows="1" fold="1" page="1" pageScale="1" pageWidth="827" pageHeight="1169" math="0" shadow="0">
      <root>
        <mxCell id="0" />
        <mxCell id="1" parent="0" />
        <object label="Start" type="start" id="gNLEYIU_wXuISYnPcQl8-1">
          <mxCell style="strokeWidth=2;html=1;shape=mxgraph.flowchart.start_2;whiteSpace=wrap;" parent="1" vertex="1">
            <mxGeometry x="53" y="559" width="50" height="50" as="geometry" />
          </mxCell>
        </object>
        <object label="counter === 1?" type="decision" id="gNLEYIU_wXuISYnPcQl8-2">
          <mxCell style="strokeWidth=2;html=1;shape=mxgraph.flowchart.decision;whiteSpace=wrap;" parent="1" vertex="1">
            <mxGeometry x="273" y="554" width="60" height="60" as="geometry" />
          </mxCell>
        </object>
        <object label="" condition="" default="" type="connection" id="gNLEYIU_wXuISYnPcQl8-3">
          <mxCell style="edgeStyle=orthogonalEdgeStyle;rounded=0;orthogonalLoop=1;jettySize=auto;html=1;exitX=1;exitY=0.5;exitDx=0;exitDy=0;exitPerimeter=0;entryX=0;entryY=0.5;entryDx=0;entryDy=0;entryPerimeter=0;" parent="1" source="gNLEYIU_wXuISYnPcQl8-1" target="gNLEYIU_wXuISYnPcQl8-2" edge="1">
            <mxGeometry relative="1" as="geometry">
              <mxPoint x="393" y="609" as="sourcePoint" />
              <mxPoint x="483" y="609" as="targetPoint" />
            </mxGeometry>
          </mxCell>
        </object>
        <object label="Increment counter" type="process" executable="increment-counter" id="758gUi_UJ20CFUGR99-E-1">
          <mxCell style="rounded=1;whiteSpace=wrap;html=1;absoluteArcSize=1;arcSize=14;strokeWidth=2;" parent="1" vertex="1">
            <mxGeometry x="353" y="439" width="126" height="70" as="geometry" />
          </mxCell>
        </object>
        <object label="Increment counter" type="process" executable="increment-counter" id="758gUi_UJ20CFUGR99-E-2">
          <mxCell style="rounded=1;whiteSpace=wrap;html=1;absoluteArcSize=1;arcSize=14;strokeWidth=2;" parent="1" vertex="1">
            <mxGeometry x="523" y="439" width="126" height="70" as="geometry" />
          </mxCell>
        </object>
        <object label="Increment counter" type="process" executable="increment-counter" id="758gUi_UJ20CFUGR99-E-3">
          <mxCell style="rounded=1;whiteSpace=wrap;html=1;absoluteArcSize=1;arcSize=14;strokeWidth=2;" parent="1" vertex="1">
            <mxGeometry x="523" y="659" width="126" height="70" as="geometry" />
          </mxCell>
        </object>
        <object label="End 1" type="end" id="758gUi_UJ20CFUGR99-E-4">
          <mxCell style="strokeWidth=5;html=1;shape=mxgraph.flowchart.start_2;whiteSpace=wrap;spacing=2;" parent="1" vertex="1">
            <mxGeometry x="723" y="449" width="50" height="50" as="geometry" />
          </mxCell>
        </object>
        <object label="End 2" type="end" id="758gUi_UJ20CFUGR99-E-5">
          <mxCell style="strokeWidth=5;html=1;shape=mxgraph.flowchart.start_2;whiteSpace=wrap;spacing=2;" parent="1" vertex="1">
            <mxGeometry x="723" y="669" width="50" height="50" as="geometry" />
          </mxCell>
        </object>
        <object label="no" condition="" default="1" type="connection" id="758gUi_UJ20CFUGR99-E-6">
          <mxCell style="edgeStyle=orthogonalEdgeStyle;rounded=0;orthogonalLoop=1;jettySize=auto;html=1;exitX=0.5;exitY=0;exitDx=0;exitDy=0;exitPerimeter=0;entryX=0;entryY=0.5;entryDx=0;entryDy=0;" parent="1" source="gNLEYIU_wXuISYnPcQl8-2" target="758gUi_UJ20CFUGR99-E-1" edge="1">
            <mxGeometry relative="1" as="geometry">
              <mxPoint x="353" y="559" as="sourcePoint" />
              <mxPoint x="443" y="559" as="targetPoint" />
            </mxGeometry>
          </mxCell>
        </object>
        <object label="" condition="" default="" type="connection" id="758gUi_UJ20CFUGR99-E-7">
          <mxCell style="edgeStyle=orthogonalEdgeStyle;rounded=0;orthogonalLoop=1;jettySize=auto;html=1;exitX=1;exitY=0.5;exitDx=0;exitDy=0;entryX=0;entryY=0.5;entryDx=0;entryDy=0;" parent="1" source="758gUi_UJ20CFUGR99-E-1" target="758gUi_UJ20CFUGR99-E-2" edge="1">
            <mxGeometry relative="1" as="geometry">
              <mxPoint x="353" y="559" as="sourcePoint" />
              <mxPoint x="443" y="559" as="targetPoint" />
            </mxGeometry>
          </mxCell>
        </object>
        <object label="" condition="" default="" type="connection" id="758gUi_UJ20CFUGR99-E-8">
          <mxCell style="edgeStyle=orthogonalEdgeStyle;rounded=0;orthogonalLoop=1;jettySize=auto;html=1;exitX=1;exitY=0.5;exitDx=0;exitDy=0;entryX=0;entryY=0.5;entryDx=0;entryDy=0;entryPerimeter=0;" parent="1" source="758gUi_UJ20CFUGR99-E-2" target="758gUi_UJ20CFUGR99-E-4" edge="1">
            <mxGeometry relative="1" as="geometry">
              <mxPoint x="353" y="559" as="sourcePoint" />
              <mxPoint x="443" y="559" as="targetPoint" />
            </mxGeometry>
          </mxCell>
        </object>
        <object label="" condition="" default="" type="connection" id="758gUi_UJ20CFUGR99-E-9">
          <mxCell style="edgeStyle=orthogonalEdgeStyle;rounded=0;orthogonalLoop=1;jettySize=auto;html=1;exitX=1;exitY=0.5;exitDx=0;exitDy=0;entryX=0;entryY=0.5;entryDx=0;entryDy=0;entryPerimeter=0;" parent="1" source="758gUi_UJ20CFUGR99-E-3" target="758gUi_UJ20CFUGR99-E-5" edge="1">
            <mxGeometry relative="1" as="geometry">
              <mxPoint x="353" y="559" as="sourcePoint" />
              <mxPoint x="443" y="559" as="targetPoint" />
            </mxGeometry>
          </mxCell>
        </object>
        <object label="yes" condition="counter === 1" default="" type="connection" id="758gUi_UJ20CFUGR99-E-10">
          <mxCell style="edgeStyle=orthogonalEdgeStyle;rounded=0;orthogonalLoop=1;jettySize=auto;html=1;exitX=0.5;exitY=1;exitDx=0;exitDy=0;exitPerimeter=0;entryX=0;entryY=0.5;entryDx=0;entryDy=0;" parent="1" source="gNLEYIU_wXuISYnPcQl8-2" target="758gUi_UJ20CFUGR99-E-3" edge="1">
            <mxGeometry x="-0.0667" relative="1" as="geometry">
              <mxPoint x="353" y="559" as="sourcePoint" />
              <mxPoint x="443" y="559" as="targetPoint" />
              <mxPoint as="offset" />
            </mxGeometry>
          </mxCell>
        </object>
      </root>
    </mxGraphModel>
  </diagram>
  <diagram id="3BvwfTnDv6Lf9sKuGtsl" name="Test5">
    <mxGraphModel dx="1426" dy="875" grid="1" gridSize="10" guides="1" tooltips="1" connect="1" arrows="1" fold="1" page="1" pageScale="1" pageWidth="827" pageHeight="1169" math="0" shadow="0">
      <root>
        <mxCell id="0" />
        <mxCell id="1" parent="0" />
        <object label="Start" type="start" id="ht4PGGvujn9JQuruN8aD-1">
          <mxCell style="strokeWidth=2;html=1;shape=mxgraph.flowchart.start_2;whiteSpace=wrap;" parent="1" vertex="1">
            <mxGeometry x="64" y="555" width="50" height="50" as="geometry" />
          </mxCell>
        </object>
        <object label="Check if prime counter" type="predefined" link="data:page/id,-cJNidSGVdsFJDWswdg3" id="OZ6Tup9gGr1jfoyMqsrD-4">
          <mxCell style="verticalLabelPosition=middle;verticalAlign=middle;html=1;shape=process;whiteSpace=wrap;rounded=1;size=0.14;arcSize=6;strokeWidth=2;labelPosition=center;align=center;" parent="1" vertex="1">
            <mxGeometry x="204" y="545" width="126" height="70" as="geometry" />
          </mxCell>
        </object>
        <object label="" condition="" default="" type="connection" id="OZ6Tup9gGr1jfoyMqsrD-5">
          <mxCell style="edgeStyle=orthogonalEdgeStyle;rounded=0;orthogonalLoop=1;jettySize=auto;html=1;exitX=1;exitY=0.5;exitDx=0;exitDy=0;exitPerimeter=0;entryX=0;entryY=0.5;entryDx=0;entryDy=0;" parent="1" source="ht4PGGvujn9JQuruN8aD-1" target="OZ6Tup9gGr1jfoyMqsrD-4" edge="1">
            <mxGeometry relative="1" as="geometry">
              <mxPoint x="304" y="585" as="sourcePoint" />
              <mxPoint x="394" y="585" as="targetPoint" />
            </mxGeometry>
          </mxCell>
        </object>
        <object label="Is prime number ?" type="decision" id="OZ6Tup9gGr1jfoyMqsrD-7">
          <mxCell style="strokeWidth=2;html=1;shape=mxgraph.flowchart.decision;whiteSpace=wrap;" parent="1" vertex="1">
            <mxGeometry x="414" y="550" width="60" height="60" as="geometry" />
          </mxCell>
        </object>
        <object label="" condition="" default="" type="connection" id="OZ6Tup9gGr1jfoyMqsrD-8">
          <mxCell style="edgeStyle=orthogonalEdgeStyle;rounded=0;orthogonalLoop=1;jettySize=auto;html=1;exitX=1;exitY=0.5;exitDx=0;exitDy=0;entryX=0;entryY=0.5;entryDx=0;entryDy=0;entryPerimeter=0;" parent="1" source="OZ6Tup9gGr1jfoyMqsrD-4" target="OZ6Tup9gGr1jfoyMqsrD-7" edge="1">
            <mxGeometry relative="1" as="geometry">
              <mxPoint x="274" y="575" as="sourcePoint" />
              <mxPoint x="364" y="575" as="targetPoint" />
            </mxGeometry>
          </mxCell>
        </object>
        <object label="Increment counter" type="process" executable="increment-counter" id="rILLP03hhCLcdmJunbkG-1">
          <mxCell style="rounded=1;whiteSpace=wrap;html=1;absoluteArcSize=1;arcSize=14;strokeWidth=2;" parent="1" vertex="1">
            <mxGeometry x="534" y="655" width="126" height="70" as="geometry" />
          </mxCell>
        </object>
        <object label="End 1" type="end" id="bnX9gS_WcTdlSSyGXGb8-1">
          <mxCell style="strokeWidth=5;html=1;shape=mxgraph.flowchart.start_2;whiteSpace=wrap;spacing=2;" parent="1" vertex="1">
            <mxGeometry x="714" y="445" width="50" height="50" as="geometry" />
          </mxCell>
        </object>
        <object label="no" condition="" default="1" type="connection" id="bnX9gS_WcTdlSSyGXGb8-2">
          <mxCell style="edgeStyle=orthogonalEdgeStyle;rounded=0;orthogonalLoop=1;jettySize=auto;html=1;exitX=0.5;exitY=0;exitDx=0;exitDy=0;exitPerimeter=0;entryX=0;entryY=0.5;entryDx=0;entryDy=0;entryPerimeter=0;" parent="1" source="OZ6Tup9gGr1jfoyMqsrD-7" target="bnX9gS_WcTdlSSyGXGb8-1" edge="1">
            <mxGeometry relative="1" as="geometry">
              <mxPoint x="374" y="635" as="sourcePoint" />
              <mxPoint x="464" y="635" as="targetPoint" />
            </mxGeometry>
          </mxCell>
        </object>
        <object label="yes" condition="isPrime === true" default="" type="connection" id="35Ai8d4-77z7j5guyJGP-1">
          <mxCell style="edgeStyle=orthogonalEdgeStyle;rounded=0;orthogonalLoop=1;jettySize=auto;html=1;exitX=0.5;exitY=1;exitDx=0;exitDy=0;exitPerimeter=0;entryX=0;entryY=0.5;entryDx=0;entryDy=0;" parent="1" source="OZ6Tup9gGr1jfoyMqsrD-7" target="rILLP03hhCLcdmJunbkG-1" edge="1">
            <mxGeometry relative="1" as="geometry">
              <mxPoint x="374" y="635" as="sourcePoint" />
              <mxPoint x="464" y="635" as="targetPoint" />
            </mxGeometry>
          </mxCell>
        </object>
        <object label="End 2" type="end" id="35Ai8d4-77z7j5guyJGP-2">
          <mxCell style="strokeWidth=5;html=1;shape=mxgraph.flowchart.start_2;whiteSpace=wrap;spacing=2;" parent="1" vertex="1">
            <mxGeometry x="714" y="665" width="50" height="50" as="geometry" />
          </mxCell>
        </object>
        <object label="" condition="" default="" type="connection" id="35Ai8d4-77z7j5guyJGP-3">
          <mxCell style="edgeStyle=orthogonalEdgeStyle;rounded=0;orthogonalLoop=1;jettySize=auto;html=1;exitX=1;exitY=0.5;exitDx=0;exitDy=0;entryX=0;entryY=0.5;entryDx=0;entryDy=0;entryPerimeter=0;" parent="1" source="rILLP03hhCLcdmJunbkG-1" target="35Ai8d4-77z7j5guyJGP-2" edge="1">
            <mxGeometry relative="1" as="geometry">
              <mxPoint x="374" y="635" as="sourcePoint" />
              <mxPoint x="464" y="635" as="targetPoint" />
            </mxGeometry>
          </mxCell>
        </object>
      </root>
    </mxGraphModel>
  </diagram>
  <diagram id="-cJNidSGVdsFJDWswdg3" name="IsPrimeNumber">
    <mxGraphModel dx="925" dy="607" grid="1" gridSize="10" guides="1" tooltips="1" connect="1" arrows="1" fold="1" page="1" pageScale="1" pageWidth="827" pageHeight="1169" math="0" shadow="0">
      <root>
        <mxCell id="0" />
        <mxCell id="1" parent="0" />
        <object label="Start" type="start" id="2s_SHfyj7aoTLIcH8Ewf-1">
          <mxCell style="strokeWidth=2;html=1;shape=mxgraph.flowchart.start_2;whiteSpace=wrap;" vertex="1" parent="1">
            <mxGeometry x="112" y="635" width="50" height="50" as="geometry" />
          </mxCell>
        </object>
        <object label="Is number even ?" type="decision" id="2s_SHfyj7aoTLIcH8Ewf-2">
          <mxCell style="strokeWidth=2;html=1;shape=mxgraph.flowchart.decision;whiteSpace=wrap;" vertex="1" parent="1">
            <mxGeometry x="255" y="630" width="60" height="60" as="geometry" />
          </mxCell>
        </object>
        <object label="" condition="" default="" type="connection" id="2s_SHfyj7aoTLIcH8Ewf-3">
          <mxCell style="edgeStyle=orthogonalEdgeStyle;rounded=0;orthogonalLoop=1;jettySize=auto;html=1;exitX=1;exitY=0.5;exitDx=0;exitDy=0;exitPerimeter=0;entryX=0;entryY=0.5;entryDx=0;entryDy=0;entryPerimeter=0;" edge="1" parent="1" source="2s_SHfyj7aoTLIcH8Ewf-1" target="2s_SHfyj7aoTLIcH8Ewf-2">
            <mxGeometry relative="1" as="geometry">
              <mxPoint x="362" y="555" as="sourcePoint" />
              <mxPoint x="262" y="705" as="targetPoint" />
            </mxGeometry>
          </mxCell>
        </object>
        <object label="Set isPrime to false" type="process" executable="set-is-prime-false" id="2s_SHfyj7aoTLIcH8Ewf-4">
          <mxCell style="rounded=1;whiteSpace=wrap;html=1;absoluteArcSize=1;arcSize=14;strokeWidth=2;" vertex="1" parent="1">
            <mxGeometry x="415" y="475" width="126" height="70" as="geometry" />
          </mxCell>
        </object>
        <object label="End 1" type="end" id="2s_SHfyj7aoTLIcH8Ewf-6">
          <mxCell style="strokeWidth=5;html=1;shape=mxgraph.flowchart.start_2;whiteSpace=wrap;spacing=2;" vertex="1" parent="1">
            <mxGeometry x="665" y="485" width="50" height="50" as="geometry" />
          </mxCell>
        </object>
        <object label="Check if counter has divider" type="process" executable="has-divider" id="2s_SHfyj7aoTLIcH8Ewf-8">
          <mxCell style="rounded=1;whiteSpace=wrap;html=1;absoluteArcSize=1;arcSize=14;strokeWidth=2;" vertex="1" parent="1">
            <mxGeometry x="415" y="625" width="126" height="70" as="geometry" />
          </mxCell>
        </object>
        <object label="End 2" type="end" id="2s_SHfyj7aoTLIcH8Ewf-9">
          <mxCell style="strokeWidth=5;html=1;shape=mxgraph.flowchart.start_2;whiteSpace=wrap;spacing=2;" vertex="1" parent="1">
            <mxGeometry x="665" y="635" width="50" height="50" as="geometry" />
          </mxCell>
        </object>
        <object label="no" condition="" default="1" type="connection" id="2s_SHfyj7aoTLIcH8Ewf-10">
          <mxCell style="edgeStyle=orthogonalEdgeStyle;rounded=0;orthogonalLoop=1;jettySize=auto;html=1;exitX=1;exitY=0.5;exitDx=0;exitDy=0;exitPerimeter=0;entryX=0;entryY=0.5;entryDx=0;entryDy=0;" edge="1" parent="1" source="2s_SHfyj7aoTLIcH8Ewf-2" target="2s_SHfyj7aoTLIcH8Ewf-8">
            <mxGeometry relative="1" as="geometry">
              <mxPoint x="395" y="535" as="sourcePoint" />
              <mxPoint x="485" y="535" as="targetPoint" />
            </mxGeometry>
          </mxCell>
        </object>
        <object label="" condition="" default="" type="connection" id="2s_SHfyj7aoTLIcH8Ewf-11">
          <mxCell style="edgeStyle=orthogonalEdgeStyle;rounded=0;orthogonalLoop=1;jettySize=auto;html=1;exitX=1;exitY=0.5;exitDx=0;exitDy=0;entryX=0;entryY=0.5;entryDx=0;entryDy=0;entryPerimeter=0;" edge="1" parent="1" source="2s_SHfyj7aoTLIcH8Ewf-8" target="2s_SHfyj7aoTLIcH8Ewf-9">
            <mxGeometry relative="1" as="geometry">
              <mxPoint x="395" y="535" as="sourcePoint" />
              <mxPoint x="485" y="535" as="targetPoint" />
            </mxGeometry>
          </mxCell>
        </object>
        <object label="yes" condition="counter % 2 === 0" default="" type="connection" id="2s_SHfyj7aoTLIcH8Ewf-12">
          <mxCell style="edgeStyle=orthogonalEdgeStyle;rounded=0;orthogonalLoop=1;jettySize=auto;html=1;exitX=0.5;exitY=0;exitDx=0;exitDy=0;exitPerimeter=0;entryX=0;entryY=0.5;entryDx=0;entryDy=0;" edge="1" parent="1" source="2s_SHfyj7aoTLIcH8Ewf-2" target="2s_SHfyj7aoTLIcH8Ewf-4">
            <mxGeometry relative="1" as="geometry">
              <mxPoint x="442" y="535" as="sourcePoint" />
              <mxPoint x="532" y="535" as="targetPoint" />
            </mxGeometry>
          </mxCell>
        </object>
        <object label="" condition="" default="" type="connection" id="2s_SHfyj7aoTLIcH8Ewf-13">
          <mxCell style="edgeStyle=orthogonalEdgeStyle;rounded=0;orthogonalLoop=1;jettySize=auto;html=1;exitX=1;exitY=0.5;exitDx=0;exitDy=0;entryX=0;entryY=0.5;entryDx=0;entryDy=0;entryPerimeter=0;" edge="1" parent="1" source="2s_SHfyj7aoTLIcH8Ewf-4" target="2s_SHfyj7aoTLIcH8Ewf-6">
            <mxGeometry relative="1" as="geometry">
              <mxPoint x="442" y="535" as="sourcePoint" />
              <mxPoint x="532" y="535" as="targetPoint" />
            </mxGeometry>
          </mxCell>
        </object>
      </root>
    </mxGraphModel>
  </diagram>
  <diagram id="pgZ07-ndbJzB5vMBUaNi" name="Test6">
    <mxGraphModel dx="1501" dy="921" grid="1" gridSize="10" guides="1" tooltips="1" connect="1" arrows="1" fold="1" page="1" pageScale="1" pageWidth="827" pageHeight="1169" math="0" shadow="0">
      <root>
        <mxCell id="0" />
        <mxCell id="1" parent="0" />
        <object label="Start" type="start" id="8qIdEfnWbE_GZIz4MGS5-1">
          <mxCell style="strokeWidth=2;html=1;shape=mxgraph.flowchart.start_2;whiteSpace=wrap;" vertex="1" parent="1">
            <mxGeometry x="79" y="560" width="50" height="50" as="geometry" />
          </mxCell>
        </object>
        <object label="End" type="end" id="8qIdEfnWbE_GZIz4MGS5-2">
          <mxCell style="strokeWidth=5;html=1;shape=mxgraph.flowchart.start_2;whiteSpace=wrap;spacing=2;" vertex="1" parent="1">
            <mxGeometry x="699" y="560" width="50" height="50" as="geometry" />
          </mxCell>
        </object>
        <object label="Add Hello World Async" type="process" executable="add-hello-world-async" id="8qIdEfnWbE_GZIz4MGS5-3">
          <mxCell style="rounded=1;whiteSpace=wrap;html=1;absoluteArcSize=1;arcSize=14;strokeWidth=2;" vertex="1" parent="1">
            <mxGeometry x="249" y="550" width="126" height="70" as="geometry" />
          </mxCell>
        </object>
        <object label="Add Hello World" type="process" executable="add-hello-world" id="8qIdEfnWbE_GZIz4MGS5-4">
          <mxCell style="rounded=1;whiteSpace=wrap;html=1;absoluteArcSize=1;arcSize=14;strokeWidth=2;" vertex="1" parent="1">
            <mxGeometry x="479" y="550" width="126" height="70" as="geometry" />
          </mxCell>
        </object>
        <object label="" condition="" default="" type="connection" id="8qIdEfnWbE_GZIz4MGS5-5">
          <mxCell style="edgeStyle=orthogonalEdgeStyle;rounded=0;orthogonalLoop=1;jettySize=auto;html=1;exitX=1;exitY=0.5;exitDx=0;exitDy=0;exitPerimeter=0;entryX=0;entryY=0.5;entryDx=0;entryDy=0;" edge="1" parent="1" source="8qIdEfnWbE_GZIz4MGS5-1" target="8qIdEfnWbE_GZIz4MGS5-3">
            <mxGeometry relative="1" as="geometry">
              <mxPoint x="359" y="580" as="sourcePoint" />
              <mxPoint x="449" y="580" as="targetPoint" />
            </mxGeometry>
          </mxCell>
        </object>
        <object label="" condition="" default="" type="connection" id="8qIdEfnWbE_GZIz4MGS5-6">
          <mxCell style="edgeStyle=orthogonalEdgeStyle;rounded=0;orthogonalLoop=1;jettySize=auto;html=1;entryX=0;entryY=0.5;entryDx=0;entryDy=0;exitX=1;exitY=0.5;exitDx=0;exitDy=0;" edge="1" parent="1" source="8qIdEfnWbE_GZIz4MGS5-3" target="8qIdEfnWbE_GZIz4MGS5-4">
            <mxGeometry relative="1" as="geometry">
              <mxPoint x="389" y="710" as="sourcePoint" />
              <mxPoint x="449" y="580" as="targetPoint" />
            </mxGeometry>
          </mxCell>
        </object>
        <object label="" condition="" default="" type="connection" id="8qIdEfnWbE_GZIz4MGS5-7">
          <mxCell style="edgeStyle=orthogonalEdgeStyle;rounded=0;orthogonalLoop=1;jettySize=auto;html=1;exitX=1;exitY=0.5;exitDx=0;exitDy=0;entryX=0;entryY=0.5;entryDx=0;entryDy=0;entryPerimeter=0;" edge="1" parent="1" source="8qIdEfnWbE_GZIz4MGS5-4" target="8qIdEfnWbE_GZIz4MGS5-2">
            <mxGeometry relative="1" as="geometry">
              <mxPoint x="359" y="580" as="sourcePoint" />
              <mxPoint x="449" y="580" as="targetPoint" />
            </mxGeometry>
          </mxCell>
        </object>
      </root>
    </mxGraphModel>
  </diagram>
  <diagram id="J69bYLgEJmfWQUcYRDvU" name="Test7">
    <mxGraphModel dx="2377" dy="1458" grid="1" gridSize="10" guides="1" tooltips="1" connect="1" arrows="1" fold="1" page="1" pageScale="1" pageWidth="827" pageHeight="1169" math="0" shadow="0">
      <root>
        <mxCell id="0" />
        <mxCell id="1" parent="0" />
        <object label="Start" type="start" id="pRC0ijBBT9lQl5jt7tEV-1">
          <mxCell style="strokeWidth=2;html=1;shape=mxgraph.flowchart.start_2;whiteSpace=wrap;" vertex="1" parent="1">
            <mxGeometry x="73" y="560" width="50" height="50" as="geometry" />
          </mxCell>
        </object>
        <object label="End" type="end" id="pRC0ijBBT9lQl5jt7tEV-2">
          <mxCell style="strokeWidth=5;html=1;shape=mxgraph.flowchart.start_2;whiteSpace=wrap;spacing=2;" vertex="1" parent="1">
            <mxGeometry x="705" y="560" width="50" height="50" as="geometry" />
          </mxCell>
        </object>
        <object label="Add Hello World Async" type="process" executable="add-hello-world-async" id="pRC0ijBBT9lQl5jt7tEV-3">
          <mxCell style="rounded=1;whiteSpace=wrap;html=1;absoluteArcSize=1;arcSize=14;strokeWidth=2;" vertex="1" parent="1">
            <mxGeometry x="475" y="550" width="126" height="70" as="geometry" />
          </mxCell>
        </object>
        <object label="Add Hello World" type="process" executable="add-hello-world" id="pRC0ijBBT9lQl5jt7tEV-4">
          <mxCell style="rounded=1;whiteSpace=wrap;html=1;absoluteArcSize=1;arcSize=14;strokeWidth=2;" vertex="1" parent="1">
            <mxGeometry x="225" y="550" width="126" height="70" as="geometry" />
          </mxCell>
        </object>
        <object label="" condition="" default="" type="connection" id="cGk9VMgG3KcMpfYCbRoM-1">
          <mxCell style="edgeStyle=orthogonalEdgeStyle;rounded=0;orthogonalLoop=1;jettySize=auto;html=1;exitX=1;exitY=0.5;exitDx=0;exitDy=0;exitPerimeter=0;entryX=0;entryY=0.5;entryDx=0;entryDy=0;" edge="1" parent="1" source="pRC0ijBBT9lQl5jt7tEV-1" target="pRC0ijBBT9lQl5jt7tEV-4">
            <mxGeometry relative="1" as="geometry">
              <mxPoint x="425" y="570" as="sourcePoint" />
              <mxPoint x="515" y="570" as="targetPoint" />
            </mxGeometry>
          </mxCell>
        </object>
        <object label="" condition="" default="" type="connection" id="cGk9VMgG3KcMpfYCbRoM-2">
          <mxCell style="edgeStyle=orthogonalEdgeStyle;rounded=0;orthogonalLoop=1;jettySize=auto;html=1;exitX=1;exitY=0.5;exitDx=0;exitDy=0;entryX=0;entryY=0.5;entryDx=0;entryDy=0;" edge="1" parent="1" source="pRC0ijBBT9lQl5jt7tEV-4" target="pRC0ijBBT9lQl5jt7tEV-3">
            <mxGeometry relative="1" as="geometry">
              <mxPoint x="425" y="640" as="sourcePoint" />
              <mxPoint x="515" y="640" as="targetPoint" />
            </mxGeometry>
          </mxCell>
        </object>
        <object label="" condition="" default="" type="connection" id="cGk9VMgG3KcMpfYCbRoM-3">
          <mxCell style="edgeStyle=orthogonalEdgeStyle;rounded=0;orthogonalLoop=1;jettySize=auto;html=1;exitX=1;exitY=0.5;exitDx=0;exitDy=0;entryX=0;entryY=0.5;entryDx=0;entryDy=0;entryPerimeter=0;" edge="1" parent="1" source="pRC0ijBBT9lQl5jt7tEV-3" target="pRC0ijBBT9lQl5jt7tEV-2">
            <mxGeometry relative="1" as="geometry">
              <mxPoint x="425" y="640" as="sourcePoint" />
              <mxPoint x="515" y="640" as="targetPoint" />
            </mxGeometry>
          </mxCell>
        </object>
      </root>
    </mxGraphModel>
  </diagram>
  <diagram id="kzcYXCuNS0V2H8SneErW" name="Test8">
    <mxGraphModel dx="1188" dy="729" grid="1" gridSize="10" guides="1" tooltips="1" connect="1" arrows="1" fold="1" page="1" pageScale="1" pageWidth="827" pageHeight="1169" math="0" shadow="0">
      <root>
        <mxCell id="0" />
        <mxCell id="1" parent="0" />
        <object label="Start" type="start" id="I_D1kpJOUUg_ciNYs8B2-2">
          <mxCell style="strokeWidth=2;html=1;shape=mxgraph.flowchart.start_2;whiteSpace=wrap;" vertex="1" parent="1">
            <mxGeometry x="114" y="560" width="50" height="50" as="geometry" />
          </mxCell>
        </object>
        <object label="" condition="" default="" type="connection" id="I_D1kpJOUUg_ciNYs8B2-3">
          <mxCell style="edgeStyle=orthogonalEdgeStyle;rounded=0;orthogonalLoop=1;jettySize=auto;html=1;exitX=1;exitY=0.5;exitDx=0;exitDy=0;exitPerimeter=0;entryX=0;entryY=0.5;entryDx=0;entryDy=0;" edge="1" parent="1" source="I_D1kpJOUUg_ciNYs8B2-2" target="I_D1kpJOUUg_ciNYs8B2-7">
            <mxGeometry relative="1" as="geometry">
              <mxPoint x="394" y="510" as="sourcePoint" />
              <mxPoint x="375" y="585" as="targetPoint" />
            </mxGeometry>
          </mxCell>
        </object>
        <object label="End" type="end" id="I_D1kpJOUUg_ciNYs8B2-4">
          <mxCell style="strokeWidth=5;html=1;shape=mxgraph.flowchart.start_2;whiteSpace=wrap;spacing=2;" vertex="1" parent="1">
            <mxGeometry x="664" y="560" width="50" height="50" as="geometry" />
          </mxCell>
        </object>
        <object label="" condition="" default="" type="connection" id="I_D1kpJOUUg_ciNYs8B2-5">
          <mxCell style="edgeStyle=orthogonalEdgeStyle;rounded=0;orthogonalLoop=1;jettySize=auto;html=1;exitX=1;exitY=0.5;exitDx=0;exitDy=0;entryX=0;entryY=0.5;entryDx=0;entryDy=0;entryPerimeter=0;" edge="1" parent="1" source="I_D1kpJOUUg_ciNYs8B2-7" target="I_D1kpJOUUg_ciNYs8B2-4">
            <mxGeometry relative="1" as="geometry">
              <mxPoint x="501" y="585" as="sourcePoint" />
              <mxPoint x="484" y="510" as="targetPoint" />
            </mxGeometry>
          </mxCell>
        </object>
        <object label="Process with data only" type="process" executable="" data="{&#xa;  &quot;test1&quot;: &quot;test1&quot;,&#xa;  &quot;test2&quot;: &quot;test2&quot;&#xa;}" id="I_D1kpJOUUg_ciNYs8B2-7">
          <mxCell style="rounded=1;whiteSpace=wrap;html=1;absoluteArcSize=1;arcSize=14;strokeWidth=2;" vertex="1" parent="1">
            <mxGeometry x="360" y="550" width="126" height="70" as="geometry" />
          </mxCell>
        </object>
      </root>
    </mxGraphModel>
  </diagram>
</mxfile>
